<svg id="svg" version="1.1" xmlns="http://www.w3.org/2000/svg" xmlns:xlink="http://www.w3.org/1999/xlink" width="400" height="463.1578947368421" viewBox="0, 0, 400,463.1578947368421"><g id="svgg"><path id="path0" d="M244.187 118.800 C 244.187 130.790,244.238 135.695,244.300 129.700 C 244.362 123.705,244.362 113.895,244.300 107.900 C 244.238 101.905,244.187 106.810,244.187 118.800 M154.586 119.200 C 154.586 130.970,154.637 135.785,154.700 129.900 C 154.762 124.015,154.762 114.385,154.700 108.500 C 154.637 102.615,154.586 107.430,154.586 119.200 M372.600 129.594 C 370.840 130.689,369.137 131.712,368.817 131.867 C 368.496 132.023,366.974 132.926,365.435 133.875 C 363.896 134.824,362.501 135.600,362.334 135.600 C 362.167 135.600,360.359 136.614,358.316 137.854 C 350.340 142.692,346.564 144.902,345.719 145.227 C 345.235 145.413,344.065 146.062,343.119 146.669 C 340.957 148.058,339.256 149.074,338.100 149.667 L 337.200 150.128 337.200 179.464 C 337.200 207.119,337.240 208.803,337.900 208.847 C 338.587 208.893,347.650 209.082,366.500 209.445 L 376.000 209.628 376.000 168.614 C 376.000 146.056,375.955 127.601,375.900 127.601 C 375.845 127.602,374.360 128.499,372.600 129.594 M117.375 137.700 L 116.200 139.000 117.500 137.825 C 118.712 136.730,118.984 136.400,118.675 136.400 C 118.606 136.400,118.021 136.985,117.375 137.700 M154.588 178.000 C 154.588 191.090,154.638 196.445,154.700 189.900 C 154.761 183.355,154.761 172.645,154.700 166.100 C 154.638 159.555,154.588 164.910,154.588 178.000 M244.091 179.500 C 244.041 192.095,244.135 202.400,244.300 202.400 C 244.572 202.400,244.568 185.987,244.290 164.800 C 244.231 160.290,244.142 166.905,244.091 179.500 M134.500 162.687 C 135.105 162.778,136.095 162.778,136.700 162.687 C 137.305 162.595,136.810 162.520,135.600 162.520 C 134.390 162.520,133.895 162.595,134.500 162.687 M262.500 165.076 C 262.885 165.176,263.515 165.176,263.900 165.076 C 264.285 164.975,263.970 164.893,263.200 164.893 C 262.430 164.893,262.115 164.975,262.500 165.076 M88.707 197.090 C 89.426 197.179,90.506 197.177,91.107 197.086 C 91.708 196.995,91.120 196.922,89.800 196.924 C 88.480 196.926,87.988 197.001,88.707 197.090 M154.594 255.200 C 154.594 283.470,154.642 295.035,154.700 280.900 C 154.758 266.765,154.758 243.635,154.700 229.500 C 154.642 215.365,154.594 226.930,154.594 255.200 M244.196 283.200 C 244.196 326.650,244.243 344.425,244.300 322.700 C 244.357 300.975,244.357 265.425,244.300 243.700 C 244.243 221.975,244.196 239.750,244.196 283.200 M234.600 210.155 C 230.420 212.600,226.280 215.063,225.400 215.630 C 224.520 216.196,222.990 217.088,222.000 217.611 C 221.010 218.134,216.112 221.001,211.114 223.981 C 206.117 226.961,201.662 229.578,201.214 229.795 L 200.400 230.190 200.400 333.303 L 200.400 436.416 201.900 435.599 C 202.725 435.149,204.480 434.098,205.800 433.263 C 207.120 432.428,209.820 430.876,211.800 429.813 C 213.780 428.751,216.120 427.396,217.000 426.802 C 217.880 426.209,224.180 422.478,231.000 418.512 C 237.820 414.546,244.875 410.424,246.678 409.351 C 248.481 408.278,252.081 406.168,254.678 404.662 C 257.275 403.157,260.736 401.117,262.369 400.130 C 264.002 399.143,266.221 397.855,267.301 397.268 C 268.380 396.681,269.876 395.840,270.625 395.400 C 277.836 391.162,289.431 384.320,294.800 381.133 C 298.430 378.979,302.622 376.538,304.115 375.708 C 305.608 374.879,308.758 373.051,311.115 371.647 C 313.472 370.243,317.560 367.829,320.200 366.282 C 322.840 364.736,327.700 361.879,331.000 359.934 C 335.727 357.148,337.030 356.537,337.139 357.051 C 337.216 357.410,337.036 357.861,336.739 358.052 C 336.315 358.326,336.306 358.469,336.698 358.722 C 337.088 358.975,337.218 367.374,337.298 397.622 L 337.400 436.200 356.435 436.304 L 375.469 436.408 375.737 391.904 C 375.884 367.427,376.004 325.755,376.005 299.300 L 376.006 251.200 356.603 251.200 L 337.200 251.200 337.200 280.736 L 337.200 310.272 331.100 313.897 C 327.745 315.891,322.120 319.183,318.600 321.214 C 315.080 323.244,309.563 326.502,306.341 328.453 C 303.118 330.404,300.367 332.000,300.228 332.000 C 300.088 332.000,296.335 334.191,291.887 336.869 C 287.439 339.547,282.810 342.253,281.600 342.883 C 280.390 343.512,278.140 344.805,276.600 345.755 C 275.060 346.706,271.190 349.012,268.000 350.880 C 254.360 358.869,250.836 360.945,248.015 362.653 C 246.373 363.647,244.438 364.708,243.716 365.009 L 242.402 365.558 242.301 285.635 L 242.200 205.711 234.600 210.155 M335.785 230.000 C 335.785 240.670,335.837 245.035,335.900 239.700 C 335.963 234.365,335.963 225.635,335.900 220.300 C 335.837 214.965,335.785 219.330,335.785 230.000 M83.600 226.200 C 84.346 226.970,85.047 227.600,85.157 227.600 C 85.267 227.600,84.746 226.970,84.000 226.200 C 83.254 225.430,82.553 224.800,82.443 224.800 C 82.333 224.800,82.854 225.430,83.600 226.200 M100.105 234.287 C 100.714 234.379,101.614 234.377,102.105 234.282 C 102.597 234.187,102.100 234.111,101.000 234.114 C 99.900 234.117,99.497 234.195,100.105 234.287 M64.094 273.876 C 64.042 293.058,64.135 308.836,64.300 308.938 C 64.572 309.106,64.569 284.588,64.294 251.600 C 64.236 244.670,64.146 254.694,64.094 273.876 M292.920 263.600 C 292.920 264.810,292.995 265.305,293.087 264.700 C 293.178 264.095,293.178 263.105,293.087 262.500 C 292.995 261.895,292.920 262.390,292.920 263.600 M111.693 264.800 C 111.693 265.570,111.775 265.885,111.876 265.500 C 111.976 265.115,111.976 264.485,111.876 264.100 C 111.775 263.715,111.693 264.030,111.693 264.800 M284.981 280.500 L 283.400 282.200 285.100 280.619 C 286.681 279.148,286.984 278.800,286.681 278.800 C 286.616 278.800,285.851 279.565,284.981 280.500 M145.578 285.500 L 144.200 287.000 145.700 285.622 C 147.096 284.338,147.384 284.000,147.078 284.000 C 147.012 284.000,146.337 284.675,145.578 285.500 M143.324 319.400 C 143.326 320.720,143.401 321.212,143.490 320.493 C 143.579 319.774,143.577 318.694,143.486 318.093 C 143.395 317.492,143.322 318.080,143.324 319.400 M150.800 335.800 C 151.995 337.010,153.063 338.000,153.173 338.000 C 153.283 338.000,152.395 337.010,151.200 335.800 C 150.005 334.590,148.937 333.600,148.827 333.600 C 148.717 333.600,149.605 334.590,150.800 335.800 M154.312 350.400 C 154.250 356.560,154.335 361.600,154.500 361.600 C 154.665 361.600,154.800 356.560,154.800 350.400 C 154.800 344.240,154.715 339.200,154.612 339.200 C 154.509 339.200,154.374 344.240,154.312 350.400 " stroke="none" fill="#cc9454" fill-rule="evenodd"></path><path id="path1" d="M23.600 230.548 L 23.600 333.506 25.900 334.897 C 27.165 335.662,29.446 337.054,30.969 337.990 C 32.493 338.927,35.095 340.407,36.752 341.280 C 38.410 342.153,40.674 343.458,41.783 344.180 C 43.379 345.219,51.776 350.156,56.600 352.893 C 59.008 354.259,70.349 360.994,71.200 361.563 C 71.750 361.931,73.190 362.751,74.400 363.386 C 75.610 364.020,80.139 366.667,84.465 369.269 C 88.790 371.871,92.437 374.000,92.568 374.000 C 92.699 374.000,95.910 375.862,99.703 378.138 C 103.496 380.414,110.650 384.624,115.600 387.494 C 120.550 390.364,125.586 393.362,126.791 394.156 C 127.996 394.950,129.111 395.600,129.269 395.600 C 129.572 395.600,136.261 399.479,140.992 402.398 C 142.528 403.345,145.768 405.240,148.192 406.609 C 150.616 407.977,156.560 411.429,161.400 414.280 C 166.240 417.132,172.720 420.949,175.800 422.763 C 178.880 424.577,182.282 426.598,183.360 427.254 C 184.437 427.910,186.638 429.158,188.250 430.027 C 189.862 430.896,192.941 432.691,195.091 434.015 L 199.000 436.423 199.101 332.932 C 199.156 276.012,199.066 229.315,198.901 229.161 C 198.735 229.006,197.250 228.165,195.600 227.290 C 193.950 226.416,191.700 225.154,190.600 224.486 C 185.570 221.429,176.877 216.400,176.624 216.400 C 176.470 216.400,175.592 215.892,174.672 215.271 C 172.716 213.950,156.946 204.800,156.625 204.800 C 156.506 204.800,156.361 240.611,156.304 284.380 C 156.233 338.569,156.068 364.092,155.786 364.374 C 155.347 364.813,155.320 364.798,142.680 357.340 C 138.896 355.107,132.500 351.356,128.467 349.005 C 124.433 346.654,120.502 344.302,119.729 343.778 C 118.957 343.254,117.622 342.514,116.762 342.135 C 115.903 341.756,115.200 341.301,115.200 341.123 C 115.200 340.945,114.990 340.800,114.732 340.800 C 114.475 340.800,110.830 338.756,106.632 336.257 C 102.435 333.759,97.740 330.992,96.200 330.108 C 91.680 327.515,66.373 312.641,64.313 311.367 L 62.427 310.200 62.313 230.004 L 62.200 149.807 53.559 144.804 C 42.471 138.383,34.636 133.797,31.492 131.885 C 30.121 131.052,27.785 129.745,26.300 128.980 L 23.600 127.590 23.600 230.548 M133.100 131.489 C 133.815 131.578,134.985 131.578,135.700 131.489 C 136.415 131.401,135.830 131.328,134.400 131.328 C 132.970 131.328,132.385 131.401,133.100 131.489 M245.600 158.200 C 246.346 158.970,247.047 159.600,247.157 159.600 C 247.267 159.600,246.746 158.970,246.000 158.200 C 245.254 157.430,244.553 156.800,244.443 156.800 C 244.333 156.800,244.854 157.430,245.600 158.200 " stroke="none" fill="#548ccc" fill-rule="evenodd"></path><path id="path2" d="M197.000 24.749 C 196.340 25.153,191.750 27.862,186.800 30.769 C 181.850 33.676,176.918 36.593,175.840 37.251 C 174.763 37.908,172.513 39.181,170.840 40.078 C 169.168 40.975,166.900 42.292,165.800 43.004 C 164.700 43.717,157.680 47.857,150.200 52.205 C 135.818 60.564,126.133 66.253,120.200 69.829 C 118.220 71.022,115.880 72.370,115.000 72.825 C 114.120 73.280,112.914 73.956,112.320 74.326 C 111.727 74.697,108.487 76.614,105.120 78.586 C 101.754 80.559,95.040 84.502,90.200 87.348 C 85.360 90.195,80.140 93.246,78.600 94.129 C 77.060 95.012,74.000 96.806,71.800 98.117 C 69.600 99.427,65.190 102.006,62.000 103.847 C 58.810 105.689,55.930 107.362,55.600 107.567 C 54.956 107.966,45.456 113.533,33.800 120.340 C 26.288 124.728,24.400 125.953,24.400 126.443 C 24.400 126.765,24.449 126.795,33.000 131.754 C 36.300 133.668,39.270 135.407,39.600 135.620 C 39.930 135.832,42.540 137.328,45.400 138.945 C 48.260 140.562,52.266 142.897,54.301 144.134 C 60.820 148.095,63.312 149.322,63.987 148.903 C 64.324 148.693,65.968 147.785,67.640 146.884 C 69.313 145.984,71.563 144.708,72.640 144.050 C 76.258 141.842,84.497 136.990,99.955 127.965 C 108.400 123.034,115.780 118.724,116.355 118.387 C 116.930 118.049,118.120 117.315,119.000 116.755 C 119.880 116.195,121.770 115.105,123.200 114.332 C 124.630 113.559,129.130 110.949,133.200 108.531 C 154.640 95.797,155.866 95.136,155.860 96.300 C 155.859 96.685,155.889 120.885,155.929 150.077 L 156.000 203.155 159.900 205.414 C 162.045 206.657,165.420 208.653,167.400 209.850 C 169.380 211.048,171.540 212.296,172.200 212.624 C 173.634 213.338,175.176 214.215,176.000 214.787 C 176.618 215.216,190.157 223.094,195.746 226.276 C 197.805 227.449,199.028 227.932,199.285 227.675 C 199.832 227.128,199.149 24.313,198.600 24.140 C 198.380 24.071,197.660 24.345,197.000 24.749 M243.867 97.067 C 243.497 97.437,243.529 140.709,243.900 140.938 C 244.065 141.040,244.200 131.151,244.200 118.962 C 244.200 106.773,244.185 96.800,244.167 96.800 C 244.148 96.800,244.013 96.920,243.867 97.067 M154.986 119.400 C 154.987 131.280,155.038 136.082,155.100 130.072 C 155.162 124.061,155.162 114.341,155.100 108.472 C 155.037 102.602,154.986 107.520,154.986 119.400 M23.383 127.704 C 23.280 127.977,23.241 174.445,23.298 230.967 L 23.400 333.734 25.800 335.246 C 28.299 336.821,37.166 342.049,39.224 343.160 C 39.875 343.512,45.132 346.574,50.904 349.964 C 72.254 362.503,71.107 361.842,70.600 361.302 C 70.286 360.967,60.966 355.369,56.600 352.893 C 51.776 350.156,43.379 345.219,41.783 344.180 C 40.674 343.458,38.410 342.153,36.752 341.280 C 35.095 340.407,32.493 338.927,30.969 337.990 C 29.446 337.054,27.165 335.662,25.900 334.897 L 23.600 333.506 23.600 230.548 L 23.600 127.590 26.300 128.980 C 27.785 129.745,30.121 131.052,31.492 131.885 C 34.636 133.797,42.471 138.383,53.559 144.804 L 62.200 149.807 62.313 230.004 L 62.427 310.200 64.313 311.367 C 66.373 312.641,91.680 327.515,96.200 330.108 C 97.740 330.992,102.472 333.782,106.716 336.308 C 110.960 338.834,114.508 340.826,114.600 340.734 C 114.692 340.642,113.739 339.980,112.483 339.264 C 111.228 338.547,109.716 337.654,109.123 337.280 C 107.867 336.486,82.052 321.374,73.655 316.517 C 70.495 314.689,66.760 312.450,65.355 311.541 L 62.800 309.889 62.794 230.044 C 62.791 186.130,62.656 150.005,62.494 149.766 C 62.332 149.527,59.230 147.616,55.600 145.519 C 51.970 143.422,48.010 141.127,46.800 140.418 C 45.590 139.710,42.350 137.828,39.600 136.235 C 36.850 134.643,32.530 132.118,30.000 130.624 C 24.588 127.427,23.646 127.012,23.383 127.704 M154.800 177.720 L 155.000 201.800 155.103 178.023 C 155.160 164.946,155.070 154.110,154.903 153.943 C 154.736 153.776,154.690 164.476,154.800 177.720 M116.800 154.525 C 116.800 154.594,117.385 155.179,118.100 155.825 L 119.400 157.000 118.225 155.700 C 117.130 154.488,116.800 154.216,116.800 154.525 M243.867 156.667 C 243.497 157.037,243.529 202.309,243.900 202.538 C 244.065 202.640,244.200 192.301,244.200 179.562 C 244.200 166.823,244.185 156.400,244.167 156.400 C 244.148 156.400,244.013 156.520,243.867 156.667 M154.994 255.000 C 154.994 283.160,155.042 294.621,155.100 280.469 C 155.158 266.317,155.158 243.277,155.100 229.269 C 155.042 215.261,154.994 226.840,154.994 255.000 M155.995 283.300 C 155.989 358.571,155.935 364.000,155.186 364.000 C 155.009 364.000,149.585 360.922,143.132 357.160 C 136.680 353.398,129.060 348.961,126.200 347.300 C 123.340 345.639,120.730 344.065,120.400 343.802 C 119.170 342.822,115.200 340.754,115.200 341.094 C 115.200 341.287,115.903 341.756,116.762 342.135 C 117.622 342.514,118.957 343.254,119.729 343.778 C 120.502 344.302,124.433 346.654,128.467 349.005 C 132.500 351.356,138.896 355.107,142.680 357.340 C 155.320 364.798,155.347 364.813,155.786 364.374 C 156.068 364.092,156.233 338.569,156.304 284.380 C 156.361 240.611,156.506 204.800,156.625 204.800 C 156.946 204.800,172.716 213.950,174.672 215.271 C 175.592 215.892,176.470 216.400,176.624 216.400 C 176.877 216.400,185.570 221.429,190.600 224.486 C 191.700 225.154,193.950 226.416,195.600 227.290 C 197.250 228.165,198.735 229.006,198.901 229.161 C 199.066 229.315,199.156 276.012,199.101 332.932 L 199.000 436.423 195.091 434.015 C 192.941 432.691,189.862 430.896,188.250 430.027 C 186.638 429.158,184.437 427.910,183.360 427.254 C 182.282 426.598,178.880 424.577,175.800 422.763 C 172.720 420.949,166.240 417.132,161.400 414.280 C 156.560 411.429,150.616 407.977,148.192 406.609 C 145.768 405.240,142.528 403.348,140.992 402.403 C 133.389 397.725,125.211 393.185,127.116 394.700 C 127.620 395.100,129.690 396.306,131.716 397.379 C 133.742 398.452,136.300 399.912,137.400 400.624 C 138.500 401.336,142.460 403.706,146.200 405.890 C 172.006 420.962,181.778 426.690,184.400 428.284 C 186.050 429.287,188.480 430.689,189.800 431.400 C 191.120 432.112,193.716 433.609,195.569 434.728 C 197.422 435.846,199.087 436.670,199.269 436.557 C 199.451 436.445,199.600 389.746,199.600 332.781 L 199.600 229.210 197.991 228.195 C 197.107 227.636,195.352 226.635,194.091 225.970 C 192.831 225.305,191.260 224.434,190.600 224.034 C 189.373 223.291,174.921 214.863,163.351 208.145 C 159.804 206.085,156.699 204.400,156.451 204.400 C 156.118 204.400,155.999 225.016,155.995 283.300 M243.796 283.600 C 243.796 327.050,243.843 344.825,243.900 323.100 C 243.957 301.375,243.957 265.825,243.900 244.100 C 243.843 222.375,243.796 240.150,243.796 283.600 M126.100 252.276 C 126.485 252.376,127.115 252.376,127.500 252.276 C 127.885 252.175,127.570 252.093,126.800 252.093 C 126.030 252.093,125.715 252.175,126.100 252.276 M284.981 280.100 L 283.400 281.800 285.100 280.219 C 286.681 278.748,286.984 278.400,286.681 278.400 C 286.616 278.400,285.851 279.165,284.981 280.100 M154.800 350.480 C 154.690 356.795,154.738 361.823,154.906 361.654 C 155.075 361.485,155.165 356.319,155.106 350.174 L 154.999 339.000 154.800 350.480 M71.385 361.975 C 71.505 362.170,73.176 363.180,75.098 364.219 C 77.020 365.258,79.765 366.828,81.196 367.706 C 85.182 370.153,94.825 375.803,121.800 391.498 C 124.220 392.906,125.930 393.797,125.600 393.477 C 125.270 393.158,120.860 390.507,115.800 387.586 C 110.740 384.666,103.496 380.414,99.703 378.138 C 95.910 375.862,92.699 374.000,92.568 374.000 C 92.437 374.000,88.790 371.871,84.465 369.269 C 76.005 364.179,71.034 361.408,71.385 361.975 " stroke="none" fill="#244a71" fill-rule="evenodd"></path><path id="path3" d="M199.810 23.984 C 199.460 24.550,200.037 228.376,200.390 228.594 C 200.536 228.684,202.623 227.629,205.028 226.249 C 215.746 220.097,230.326 211.569,236.200 208.017 L 242.600 204.147 242.701 149.673 C 242.775 110.197,242.925 95.200,243.245 95.200 C 243.659 95.200,247.076 97.159,264.917 107.625 C 268.832 109.921,272.792 112.226,273.717 112.746 C 275.784 113.909,283.212 118.286,287.000 120.574 C 288.540 121.504,290.880 122.865,292.200 123.598 C 293.520 124.332,295.079 125.217,295.664 125.566 C 296.249 125.915,303.359 130.088,311.464 134.840 C 319.569 139.592,327.100 144.021,328.200 144.683 C 329.300 145.345,331.550 146.652,333.200 147.587 L 336.200 149.289 339.800 147.393 C 341.780 146.350,344.300 144.911,345.400 144.196 C 346.500 143.481,353.655 139.260,361.300 134.816 C 368.945 130.373,375.200 126.605,375.200 126.444 C 375.200 125.883,372.907 124.473,356.000 114.630 C 332.179 100.764,331.634 100.443,329.400 99.006 C 328.300 98.298,325.960 96.944,324.200 95.997 C 322.440 95.050,320.100 93.704,319.000 93.007 C 317.900 92.310,309.440 87.332,300.200 81.945 C 275.108 67.317,275.271 67.413,273.000 65.960 C 272.120 65.396,270.230 64.297,268.800 63.516 C 267.370 62.735,265.630 61.759,264.934 61.348 C 262.237 59.755,243.057 48.501,236.478 44.651 C 232.670 42.423,225.740 38.335,221.078 35.567 C 216.415 32.800,211.790 30.078,210.800 29.519 C 209.810 28.961,207.244 27.484,205.098 26.239 C 200.454 23.542,200.160 23.417,199.810 23.984 M365.800 133.253 C 364.700 133.934,363.620 134.676,363.400 134.903 C 362.957 135.358,365.714 133.790,367.234 132.721 C 368.831 131.598,367.939 131.929,365.800 133.253 M260.311 133.893 C 261.251 133.978,262.691 133.977,263.511 133.891 C 264.330 133.805,263.560 133.736,261.800 133.737 C 260.040 133.739,259.370 133.809,260.311 133.893 M279.200 140.200 C 279.946 140.970,280.647 141.600,280.757 141.600 C 280.867 141.600,280.346 140.970,279.600 140.200 C 278.854 139.430,278.153 138.800,278.043 138.800 C 277.933 138.800,278.454 139.430,279.200 140.200 M352.434 141.006 C 350.803 141.977,349.273 142.975,349.034 143.225 C 348.542 143.739,354.793 140.137,355.380 139.568 C 356.054 138.915,355.458 139.206,352.434 141.006 M113.693 146.400 C 113.693 147.170,113.775 147.485,113.876 147.100 C 113.976 146.715,113.976 146.085,113.876 145.700 C 113.775 145.315,113.693 145.630,113.693 146.400 M338.600 149.010 C 337.720 149.552,337.159 149.997,337.353 149.998 C 337.763 150.000,340.400 148.416,340.400 148.167 C 340.400 147.913,340.321 147.951,338.600 149.010 M64.193 195.400 C 64.193 219.600,64.241 229.441,64.300 217.269 C 64.359 205.097,64.359 185.297,64.300 173.269 C 64.241 161.241,64.193 171.200,64.193 195.400 M152.175 156.500 L 151.000 157.800 152.300 156.625 C 153.015 155.979,153.600 155.394,153.600 155.325 C 153.600 155.016,153.270 155.288,152.175 156.500 M234.164 209.962 C 229.759 212.549,225.449 215.146,224.585 215.733 C 223.721 216.320,222.850 216.800,222.650 216.800 C 222.264 216.800,205.786 226.519,202.888 228.456 C 201.947 229.085,200.912 229.600,200.588 229.600 C 199.911 229.600,199.673 436.150,200.349 436.569 C 200.541 436.687,202.206 435.860,204.049 434.730 C 207.423 432.662,209.329 431.569,213.262 429.446 C 214.438 428.811,216.570 427.540,218.000 426.621 C 219.430 425.702,222.130 424.072,224.000 423.001 C 231.375 418.774,259.402 402.358,263.200 400.041 C 264.190 399.437,266.440 398.167,268.200 397.217 C 269.960 396.268,271.670 395.274,272.000 395.008 C 272.639 394.493,273.322 394.093,298.600 379.402 C 307.620 374.160,315.720 369.391,316.600 368.805 C 317.480 368.219,319.910 366.774,322.000 365.595 C 324.090 364.416,328.164 362.045,331.053 360.326 C 336.383 357.154,337.293 356.724,336.400 357.800 C 336.031 358.245,336.017 358.539,336.349 358.939 C 336.670 359.325,336.825 370.354,336.898 398.039 L 337.000 436.600 356.400 436.600 L 375.800 436.600 376.088 397.000 C 376.247 375.220,376.337 333.460,376.288 304.200 L 376.200 251.000 356.600 251.000 L 337.000 251.000 336.800 280.600 L 336.600 310.200 329.800 314.236 C 326.060 316.456,316.250 322.193,308.000 326.984 C 299.750 331.775,292.100 336.280,291.000 336.995 C 289.900 337.709,287.323 339.236,285.274 340.387 C 283.224 341.539,281.630 342.563,281.731 342.665 C 281.832 342.766,285.982 340.408,290.952 337.424 C 295.923 334.441,300.100 332.000,300.236 332.000 C 300.371 332.000,303.118 330.404,306.341 328.453 C 309.563 326.502,315.080 323.244,318.600 321.214 C 322.120 319.183,327.745 315.891,331.100 313.897 L 337.200 310.272 337.200 280.736 L 337.200 251.200 356.603 251.200 L 376.006 251.200 376.005 299.300 C 376.004 325.755,375.884 367.427,375.737 391.904 L 375.469 436.408 356.435 436.304 L 337.400 436.200 337.298 397.622 C 337.218 367.374,337.088 358.975,336.698 358.722 C 336.306 358.469,336.315 358.326,336.739 358.052 C 337.036 357.861,337.216 357.410,337.139 357.051 C 337.030 356.537,335.727 357.148,331.000 359.934 C 327.700 361.879,322.840 364.736,320.200 366.282 C 317.560 367.829,313.472 370.243,311.115 371.647 C 308.758 373.051,305.608 374.879,304.115 375.708 C 302.622 376.538,298.430 378.979,294.800 381.133 C 289.431 384.320,277.836 391.162,270.625 395.400 C 269.876 395.840,268.380 396.681,267.301 397.268 C 266.221 397.855,264.002 399.143,262.369 400.130 C 260.736 401.117,257.275 403.157,254.678 404.662 C 252.081 406.168,248.481 408.278,246.678 409.351 C 244.875 410.424,237.820 414.546,231.000 418.512 C 224.180 422.478,217.880 426.209,217.000 426.802 C 216.120 427.396,213.780 428.751,211.800 429.813 C 209.820 430.876,207.120 432.428,205.800 433.263 C 204.480 434.098,202.725 435.149,201.900 435.599 L 200.400 436.416 200.400 333.303 L 200.400 230.190 201.214 229.795 C 201.662 229.578,206.117 226.961,211.114 223.981 C 216.112 221.001,221.010 218.134,222.000 217.611 C 222.990 217.088,224.520 216.196,225.400 215.630 C 226.280 215.063,230.420 212.600,234.600 210.155 L 242.200 205.711 242.301 285.635 L 242.402 365.558 243.716 365.009 C 244.438 364.708,246.373 363.647,248.015 362.653 C 249.657 361.659,253.520 359.372,256.600 357.571 C 259.680 355.770,263.640 353.443,265.400 352.401 C 267.160 351.358,270.821 349.205,273.536 347.616 C 279.150 344.330,281.493 342.800,280.910 342.800 C 280.689 342.800,280.079 343.132,279.554 343.537 C 279.029 343.942,276.440 345.532,273.800 347.070 C 271.160 348.607,264.283 352.641,258.517 356.033 C 246.897 362.869,243.546 364.772,243.100 364.789 C 242.935 364.795,242.800 328.991,242.800 285.224 C 242.800 241.457,242.659 205.560,242.486 205.453 C 242.313 205.347,238.568 207.376,234.164 209.962 M110.378 230.300 L 109.000 231.800 110.500 230.422 C 111.896 229.138,112.184 228.800,111.878 228.800 C 111.812 228.800,111.137 229.475,110.378 230.300 M258.000 282.925 C 258.000 282.994,258.585 283.579,259.300 284.225 L 260.600 285.400 259.425 284.100 C 258.330 282.888,258.000 282.616,258.000 282.925 M146.975 310.100 L 145.800 311.400 147.100 310.225 C 148.312 309.130,148.584 308.800,148.275 308.800 C 148.206 308.800,147.621 309.385,146.975 310.100 " stroke="none" fill="#745425" fill-rule="evenodd"></path><path id="path4" d="M244.412 118.938 C 244.420 133.591,244.554 140.378,244.825 139.913 C 245.320 139.064,248.849 136.705,251.000 135.786 C 251.880 135.410,252.908 134.947,253.285 134.757 C 261.606 130.564,278.088 135.781,282.577 144.028 C 291.426 160.287,261.565 172.559,246.378 158.905 L 244.400 157.126 244.400 179.563 C 244.400 191.903,244.508 202.000,244.641 202.000 C 244.774 202.000,250.579 198.732,257.541 194.739 C 280.540 181.546,282.934 180.177,290.800 175.725 C 295.090 173.296,302.200 169.269,306.600 166.776 C 311.000 164.283,317.390 160.669,320.800 158.744 C 332.644 152.059,334.800 150.789,334.798 150.495 C 334.796 150.198,332.809 148.999,317.400 139.994 C 306.515 133.632,298.663 129.020,292.200 125.190 C 289.340 123.495,285.740 121.394,284.200 120.521 C 282.660 119.649,276.540 116.084,270.600 112.601 C 264.660 109.117,256.335 104.244,252.100 101.772 L 244.400 97.277 244.412 118.938 M149.400 100.871 C 144.123 103.988,137.002 108.148,124.200 115.595 C 119.580 118.283,113.100 122.057,109.800 123.983 C 106.500 125.909,100.470 129.426,96.400 131.798 C 92.330 134.171,86.480 137.589,83.400 139.395 C 80.320 141.201,75.226 144.164,72.080 145.981 C 68.935 147.797,66.428 149.484,66.510 149.730 C 66.677 150.232,68.085 151.093,82.000 159.207 C 91.737 164.885,93.406 165.867,107.600 174.275 C 111.670 176.686,118.960 180.967,123.800 183.788 C 128.640 186.610,134.940 190.304,137.800 191.998 C 140.660 193.691,145.250 196.409,148.000 198.038 C 150.750 199.667,153.315 201.129,153.700 201.287 C 154.362 201.559,154.400 200.297,154.400 178.064 L 154.400 154.555 152.230 156.656 C 140.150 168.357,113.957 161.497,113.830 146.600 C 113.702 131.618,139.462 125.698,151.892 137.853 L 154.400 140.305 154.400 119.153 C 154.400 107.519,154.355 98.008,154.300 98.018 C 154.245 98.028,152.040 99.312,149.400 100.871 M64.400 229.991 L 64.400 308.782 65.300 309.326 C 65.795 309.625,68.990 311.499,72.400 313.489 C 75.810 315.479,81.660 318.906,85.400 321.104 C 89.140 323.303,92.830 325.461,93.600 325.900 C 94.370 326.338,96.620 327.651,98.600 328.818 C 100.580 329.984,104.360 332.186,107.000 333.711 C 109.640 335.236,111.980 336.623,112.200 336.793 C 112.420 336.964,115.570 338.813,119.200 340.903 C 122.830 342.993,130.480 347.453,136.200 350.814 C 149.839 358.828,153.949 361.200,154.197 361.200 C 154.308 361.200,154.400 356.222,154.400 350.138 L 154.400 339.077 151.989 336.895 C 140.066 326.105,140.682 309.302,153.100 306.618 L 154.400 306.336 154.400 255.014 L 154.400 203.692 151.700 202.088 C 150.215 201.206,145.850 198.643,142.000 196.391 C 138.150 194.140,132.480 190.812,129.400 188.997 C 112.554 179.069,107.559 176.129,101.200 172.402 C 89.878 165.766,81.021 160.545,74.400 156.602 C 68.471 153.071,65.081 151.200,64.616 151.200 C 64.497 151.200,64.400 186.656,64.400 229.991 M334.200 153.063 C 333.540 153.410,330.570 155.088,327.600 156.792 C 324.630 158.495,321.300 160.384,320.200 160.989 C 317.084 162.704,305.984 168.990,299.800 172.542 C 296.720 174.311,293.390 176.191,292.400 176.718 C 291.410 177.246,287.270 179.579,283.200 181.903 C 269.207 189.895,256.994 196.893,253.400 198.978 C 251.420 200.127,248.585 201.736,247.100 202.553 L 244.400 204.039 244.400 283.034 L 244.400 362.028 245.300 361.555 C 245.795 361.294,250.520 358.569,255.800 355.498 C 264.899 350.207,269.507 347.522,283.700 339.241 C 287.055 337.284,293.580 333.485,298.200 330.800 C 302.820 328.115,309.300 324.338,312.600 322.407 C 315.900 320.476,319.968 318.110,321.639 317.148 C 323.311 316.187,327.136 313.963,330.139 312.208 L 335.600 309.015 335.600 230.708 C 335.600 187.638,335.555 152.407,335.500 152.416 C 335.445 152.425,334.860 152.716,334.200 153.063 M93.974 197.454 C 109.930 201.429,119.659 220.431,110.736 230.193 C 101.250 240.573,79.126 229.274,76.808 212.866 C 75.259 201.902,83.202 194.770,93.974 197.454 M285.770 251.735 C 300.945 258.682,290.434 284.643,271.241 287.621 C 260.039 289.359,252.775 280.204,256.393 268.907 C 260.541 255.953,275.669 247.110,285.770 251.735 M130.236 252.552 C 139.359 254.981,148.023 264.433,149.217 273.258 C 151.501 290.134,132.778 294.942,119.123 280.986 C 105.276 266.834,112.685 247.878,130.236 252.552 " stroke="none" fill="#fbfbfb" fill-rule="evenodd"></path><path id="path5" d="M196.997 22.649 C 195.679 23.442,194.510 24.225,194.400 24.389 C 194.290 24.553,192.850 25.418,191.200 26.312 C 185.497 29.400,181.796 31.538,180.779 32.333 C 180.217 32.771,177.697 34.252,175.179 35.623 C 172.660 36.994,169.610 38.748,168.400 39.521 C 165.326 41.484,159.696 44.800,159.438 44.800 C 159.123 44.800,153.035 48.429,152.800 48.757 C 152.690 48.910,149.720 50.621,146.200 52.559 C 142.680 54.498,139.440 56.404,139.000 56.796 C 138.560 57.188,136.850 58.229,135.200 59.109 C 130.819 61.447,125.882 64.292,125.252 64.843 C 124.950 65.106,121.980 66.842,118.652 68.701 C 115.323 70.559,112.330 72.299,112.000 72.568 C 111.260 73.169,106.751 75.798,103.000 77.816 C 101.460 78.644,99.507 79.789,98.659 80.361 C 96.903 81.546,96.540 81.759,90.800 84.971 C 88.490 86.264,85.140 88.284,83.355 89.461 C 81.571 90.637,79.971 91.600,79.801 91.600 C 79.421 91.600,70.278 96.858,70.000 97.236 C 69.890 97.386,67.910 98.551,65.600 99.824 C 63.290 101.098,60.140 102.906,58.600 103.843 C 57.060 104.779,54.000 106.573,51.800 107.830 C 43.729 112.439,42.186 113.368,41.425 114.077 C 40.999 114.475,40.485 114.800,40.285 114.800 C 40.085 114.800,38.274 115.762,36.260 116.937 C 34.247 118.113,31.655 119.581,30.500 120.201 C 29.345 120.820,28.400 121.448,28.400 121.596 C 28.400 121.745,26.872 122.661,25.005 123.633 L 21.609 125.400 21.612 230.200 L 21.615 335.000 25.107 336.890 C 30.838 339.991,32.589 340.986,32.800 341.261 C 33.069 341.612,39.147 345.195,39.512 345.218 C 39.670 345.228,41.184 346.083,42.875 347.118 C 50.031 351.497,51.605 352.423,55.546 354.573 C 57.826 355.817,59.960 357.103,60.288 357.430 C 60.615 357.758,61.630 358.404,62.542 358.866 C 63.454 359.328,65.847 360.672,67.860 361.853 C 69.874 363.034,71.685 364.000,71.885 364.000 C 72.085 364.000,72.599 364.325,73.025 364.723 C 73.838 365.481,76.580 367.115,83.600 371.026 C 85.910 372.313,87.890 373.480,88.000 373.618 C 88.255 373.940,95.151 378.000,95.442 378.000 C 95.712 378.000,101.324 381.286,101.600 381.605 C 101.864 381.910,110.535 386.881,112.658 387.943 C 113.570 388.400,114.572 389.029,114.885 389.342 C 115.197 389.655,116.521 390.502,117.827 391.226 C 119.132 391.949,121.847 393.499,123.860 394.670 C 125.874 395.842,127.685 396.800,127.885 396.800 C 128.085 396.800,128.599 397.125,129.025 397.523 C 129.788 398.233,131.397 399.202,139.400 403.768 C 141.600 405.023,144.480 406.728,145.800 407.557 C 147.120 408.385,149.820 409.928,151.800 410.985 C 153.780 412.042,156.120 413.403,157.000 414.008 C 158.955 415.354,165.453 419.120,168.256 420.533 C 169.386 421.102,170.565 421.822,170.875 422.132 C 171.184 422.441,173.769 424.009,176.619 425.615 C 183.359 429.413,184.356 429.996,186.232 431.239 C 187.094 431.811,189.212 433.040,190.939 433.969 C 192.665 434.899,195.365 436.446,196.939 437.407 C 199.457 438.945,199.896 439.093,200.600 438.637 C 201.040 438.353,202.930 437.253,204.800 436.194 C 212.986 431.555,214.359 430.731,214.815 430.182 C 215.081 429.862,215.474 429.600,215.689 429.600 C 215.903 429.600,217.726 428.642,219.740 427.470 C 221.753 426.299,224.468 424.749,225.773 424.026 C 227.079 423.302,228.403 422.455,228.715 422.142 C 229.028 421.829,230.030 421.198,230.942 420.740 C 233.162 419.623,242.548 414.276,242.800 413.983 C 243.037 413.708,247.055 411.359,249.600 410.008 C 250.590 409.482,252.480 408.377,253.800 407.551 C 255.120 406.726,258.000 405.023,260.200 403.768 C 268.203 399.202,269.812 398.233,270.575 397.523 C 271.001 397.125,271.515 396.800,271.715 396.800 C 271.915 396.800,273.726 395.842,275.740 394.670 C 277.753 393.499,280.468 391.949,281.773 391.226 C 283.079 390.502,284.404 389.653,284.718 389.339 C 285.032 389.025,286.214 388.304,287.344 387.735 C 289.741 386.530,297.707 381.949,298.000 381.607 C 298.274 381.288,303.886 378.000,304.158 378.000 C 304.454 378.000,311.349 373.936,311.600 373.614 C 311.710 373.472,313.870 372.213,316.400 370.815 C 322.697 367.337,325.658 365.562,326.575 364.715 C 327.002 364.322,327.542 364.000,327.775 363.999 C 328.009 363.999,329.696 363.099,331.524 361.999 C 333.352 360.900,334.927 360.000,335.024 360.000 C 335.121 360.000,335.200 377.550,335.200 399.000 L 335.200 438.000 356.334 438.000 L 377.468 438.000 377.734 394.734 C 377.880 370.937,378.000 328.412,378.000 300.234 L 378.000 249.000 358.000 249.121 L 338.000 249.241 338.000 230.021 L 338.000 210.800 347.520 210.800 C 352.983 210.800,357.202 210.962,357.420 211.179 C 357.635 211.394,362.134 211.587,367.800 211.626 L 377.800 211.693 377.902 168.521 L 378.004 125.349 374.602 123.624 C 372.731 122.675,371.200 121.771,371.200 121.613 C 371.200 121.456,370.255 120.821,369.100 120.202 C 367.945 119.583,365.509 118.204,363.688 117.138 C 361.866 116.072,360.230 115.200,360.053 115.200 C 359.875 115.200,358.756 114.508,357.565 113.662 C 356.374 112.816,354.022 111.378,352.339 110.465 C 350.655 109.552,347.955 108.003,346.339 107.022 C 343.497 105.298,339.681 103.079,333.000 99.265 C 331.240 98.260,329.710 97.332,329.600 97.201 C 329.342 96.895,320.709 91.942,318.542 90.857 C 317.630 90.400,316.620 89.763,316.299 89.442 C 315.753 88.896,313.830 87.774,305.800 83.318 C 304.040 82.341,301.880 81.042,301.000 80.431 C 300.120 79.820,298.140 78.641,296.600 77.812 C 293.182 75.973,289.665 73.912,287.000 72.186 C 285.900 71.474,282.930 69.769,280.400 68.398 C 277.870 67.026,275.260 65.511,274.600 65.031 C 273.517 64.242,265.591 59.672,262.600 58.111 C 261.940 57.766,261.040 57.169,260.600 56.784 C 260.160 56.399,256.920 54.498,253.400 52.559 C 249.880 50.621,246.910 48.910,246.800 48.757 C 246.549 48.407,240.466 44.800,240.127 44.800 C 239.990 44.800,237.250 43.200,234.039 41.245 C 230.827 39.290,226.310 36.651,224.000 35.381 C 221.690 34.112,219.350 32.727,218.800 32.304 C 217.741 31.490,213.378 28.971,208.400 26.300 C 206.750 25.415,205.310 24.559,205.200 24.398 C 204.897 23.955,201.112 21.723,200.197 21.449 C 199.670 21.291,198.572 21.703,196.997 22.649 M205.098 26.239 C 207.244 27.484,209.810 28.961,210.800 29.519 C 211.790 30.078,216.415 32.800,221.078 35.567 C 225.740 38.335,232.670 42.423,236.478 44.651 C 243.057 48.501,262.237 59.755,264.934 61.348 C 265.630 61.759,267.370 62.735,268.800 63.516 C 270.230 64.297,272.120 65.396,273.000 65.960 C 275.271 67.413,275.108 67.317,300.200 81.945 C 309.440 87.332,317.900 92.310,319.000 93.007 C 320.100 93.704,322.440 95.050,324.200 95.997 C 325.960 96.944,328.300 98.298,329.400 99.006 C 331.634 100.443,332.179 100.764,356.000 114.630 C 372.907 124.473,375.200 125.883,375.200 126.444 C 375.200 126.605,368.945 130.373,361.300 134.816 C 353.655 139.260,346.500 143.481,345.400 144.196 C 344.300 144.911,341.780 146.350,339.800 147.393 L 336.200 149.289 333.200 147.587 C 331.550 146.652,329.300 145.345,328.200 144.683 C 327.100 144.021,319.569 139.592,311.464 134.840 C 303.359 130.088,296.249 125.915,295.664 125.566 C 295.079 125.217,293.520 124.332,292.200 123.598 C 290.880 122.865,288.540 121.504,287.000 120.574 C 283.212 118.286,275.784 113.909,273.717 112.746 C 272.792 112.226,268.832 109.921,264.917 107.625 C 247.076 97.159,243.659 95.200,243.245 95.200 C 242.925 95.200,242.775 110.197,242.701 149.673 L 242.600 204.147 236.200 208.017 C 230.326 211.569,215.746 220.097,205.028 226.249 C 202.623 227.629,200.536 228.684,200.390 228.594 C 200.037 228.376,199.460 24.550,199.810 23.984 C 200.160 23.417,200.454 23.542,205.098 26.239 M199.339 125.774 C 199.560 192.133,199.542 227.418,199.285 227.675 C 199.028 227.932,197.805 227.449,195.746 226.276 C 190.157 223.094,176.618 215.216,176.000 214.787 C 175.176 214.215,173.634 213.338,172.200 212.624 C 171.540 212.296,169.380 211.048,167.400 209.850 C 165.420 208.653,162.045 206.657,159.900 205.414 L 156.000 203.155 155.929 150.077 C 155.889 120.885,155.859 96.685,155.860 96.300 C 155.866 95.136,154.640 95.797,133.200 108.531 C 129.130 110.949,124.630 113.559,123.200 114.332 C 121.770 115.105,119.880 116.195,119.000 116.755 C 118.120 117.315,116.930 118.049,116.355 118.387 C 115.780 118.724,108.400 123.034,99.955 127.965 C 84.497 136.990,76.258 141.842,72.640 144.050 C 71.563 144.708,69.313 145.984,67.640 146.884 C 65.968 147.785,64.324 148.693,63.987 148.903 C 63.312 149.322,60.820 148.095,54.301 144.134 C 52.266 142.897,48.260 140.562,45.400 138.945 C 42.540 137.328,39.930 135.832,39.600 135.620 C 39.270 135.407,36.300 133.668,33.000 131.754 C 24.449 126.795,24.400 126.765,24.400 126.443 C 24.400 125.953,26.288 124.728,33.800 120.340 C 45.456 113.533,54.956 107.966,55.600 107.567 C 55.930 107.362,58.810 105.689,62.000 103.847 C 65.190 102.006,69.600 99.427,71.800 98.117 C 74.000 96.806,77.060 95.012,78.600 94.129 C 80.140 93.246,85.360 90.195,90.200 87.348 C 95.040 84.502,101.754 80.559,105.120 78.586 C 108.487 76.614,111.727 74.697,112.320 74.326 C 112.914 73.956,114.120 73.280,115.000 72.825 C 115.880 72.370,118.220 71.022,120.200 69.829 C 126.133 66.253,135.818 60.564,150.200 52.205 C 157.680 47.857,164.700 43.717,165.800 43.004 C 166.900 42.292,169.168 40.975,170.840 40.078 C 172.513 39.181,174.763 37.908,175.840 37.251 C 176.918 36.593,181.850 33.676,186.800 30.769 C 191.750 27.862,196.340 25.153,197.000 24.749 C 197.660 24.345,198.380 24.071,198.600 24.140 C 198.864 24.224,199.115 58.751,199.339 125.774 M249.400 99.807 C 251.380 100.953,257.050 104.278,262.000 107.197 C 266.950 110.115,272.260 113.222,273.800 114.101 C 275.340 114.980,279.570 117.446,283.200 119.581 C 286.830 121.715,293.130 125.409,297.200 127.789 C 301.270 130.169,306.670 133.333,309.200 134.820 C 317.618 139.767,332.735 148.591,333.976 149.281 C 336.251 150.548,336.644 150.266,318.200 160.604 C 315.560 162.084,311.780 164.232,309.800 165.378 C 307.820 166.524,303.770 168.826,300.800 170.495 C 297.830 172.164,292.160 175.374,288.200 177.628 C 284.240 179.883,279.650 182.485,278.000 183.412 C 276.350 184.338,270.050 187.942,264.000 191.420 C 257.950 194.898,251.033 198.872,248.628 200.251 C 246.223 201.630,244.108 202.667,243.928 202.555 C 243.546 202.319,243.475 157.059,243.856 156.678 C 243.996 156.537,245.057 157.286,246.212 158.342 C 263.521 174.161,295.572 156.708,279.229 140.365 C 271.131 132.267,253.126 131.864,245.679 139.613 C 244.835 140.492,244.022 141.089,243.872 140.939 C 243.529 140.596,243.510 97.424,243.853 97.081 C 244.141 96.792,244.473 96.955,249.400 99.807 M155.104 119.163 C 155.214 141.902,155.161 142.589,153.483 140.054 C 145.646 128.212,120.675 129.331,115.172 141.770 C 107.856 158.309,138.681 170.053,152.455 155.976 C 153.703 154.701,154.831 153.764,154.962 153.895 C 155.540 154.473,155.216 201.619,154.633 201.843 C 154.321 201.963,151.846 200.729,149.133 199.102 C 146.420 197.476,139.790 193.566,134.400 190.415 C 129.010 187.264,122.170 183.249,119.200 181.493 C 116.230 179.737,112.540 177.572,111.000 176.681 C 109.460 175.791,105.950 173.720,103.200 172.079 C 100.450 170.438,97.210 168.519,96.000 167.813 C 94.790 167.107,91.190 164.993,88.000 163.116 C 84.810 161.238,78.516 157.536,74.013 154.889 C 69.510 152.242,65.774 149.922,65.711 149.734 C 65.648 149.545,67.893 148.055,70.699 146.421 C 75.552 143.596,78.713 141.752,96.800 131.200 C 101.090 128.697,106.040 125.812,107.800 124.788 C 127.872 113.115,148.689 100.946,152.000 98.949 C 153.210 98.220,154.380 97.678,154.600 97.745 C 154.858 97.823,155.037 105.404,155.104 119.163 M30.000 130.624 C 32.530 132.118,36.850 134.643,39.600 136.235 C 42.350 137.828,45.590 139.710,46.800 140.418 C 48.010 141.127,51.970 143.422,55.600 145.519 C 59.230 147.616,62.332 149.527,62.494 149.766 C 62.656 150.005,62.791 186.130,62.794 230.044 L 62.800 309.889 65.355 311.541 C 66.760 312.450,70.495 314.689,73.655 316.517 C 82.120 321.413,107.875 336.491,109.123 337.281 C 109.716 337.656,112.450 339.241,115.200 340.804 C 117.950 342.367,122.540 345.044,125.400 346.753 C 135.220 352.623,154.870 364.000,155.188 364.000 C 155.935 364.000,155.989 358.520,155.995 283.300 C 155.999 225.016,156.118 204.400,156.451 204.400 C 156.699 204.400,159.804 206.085,163.351 208.145 C 174.921 214.863,189.373 223.291,190.600 224.034 C 191.260 224.434,192.831 225.305,194.091 225.970 C 195.352 226.635,197.107 227.636,197.991 228.195 L 199.600 229.210 199.600 332.781 C 199.600 389.746,199.451 436.445,199.269 436.557 C 199.087 436.670,197.422 435.846,195.569 434.728 C 193.716 433.609,191.120 432.112,189.800 431.400 C 188.480 430.689,186.050 429.287,184.400 428.284 C 182.750 427.281,175.010 422.726,167.200 418.161 C 140.984 402.839,139.408 401.912,137.200 400.525 C 135.990 399.765,133.290 398.193,131.200 397.030 C 129.110 395.868,125.150 393.570,122.400 391.923 C 119.650 390.276,112.810 386.258,107.200 382.994 C 95.137 375.976,84.964 370.001,80.800 367.488 C 79.150 366.492,76.408 364.895,74.708 363.938 C 73.007 362.982,69.317 360.838,66.508 359.174 C 56.699 353.362,40.399 343.795,39.224 343.160 C 37.166 342.049,28.299 336.821,25.800 335.246 L 23.400 333.734 23.298 230.967 C 23.241 174.445,23.280 127.977,23.383 127.704 C 23.646 127.012,24.588 127.427,30.000 130.624 M375.827 209.507 C 375.729 209.604,366.998 209.551,356.425 209.388 L 337.200 209.092 337.200 179.438 L 337.200 149.783 339.100 148.792 C 341.411 147.586,347.722 143.922,352.600 140.954 C 354.580 139.749,356.621 138.590,357.136 138.378 C 357.651 138.166,361.251 136.076,365.136 133.733 C 369.021 131.391,373.010 129.063,374.000 128.560 L 375.800 127.646 375.902 168.488 C 375.958 190.951,375.924 209.409,375.827 209.507 M68.551 152.756 C 70.338 153.832,75.400 156.825,79.800 159.408 C 84.200 161.990,91.310 166.172,95.600 168.701 C 99.890 171.231,106.010 174.831,109.200 176.702 C 112.390 178.573,117.430 181.548,120.400 183.313 C 123.370 185.078,126.610 186.975,127.600 187.529 C 130.536 189.172,135.590 192.126,138.800 194.075 C 140.450 195.077,144.500 197.476,147.800 199.405 C 151.100 201.335,154.115 203.186,154.500 203.519 C 155.238 204.157,155.625 305.194,154.894 306.207 C 154.732 306.430,153.700 306.841,152.600 307.119 C 141.110 310.024,140.640 325.139,151.700 336.054 L 155.200 339.509 155.200 350.531 C 155.200 356.593,155.052 361.644,154.871 361.756 C 154.690 361.868,151.855 360.381,148.571 358.451 C 139.262 352.981,133.049 349.359,127.400 346.107 C 124.540 344.460,120.940 342.351,119.400 341.419 C 116.690 339.779,108.649 335.066,105.663 333.368 C 101.433 330.963,95.955 327.732,94.092 326.544 C 92.933 325.805,91.901 325.200,91.799 325.200 C 91.697 325.200,90.438 324.480,89.000 323.600 C 87.562 322.720,86.305 322.000,86.207 322.000 C 86.109 322.000,84.357 320.983,82.314 319.740 C 80.271 318.497,75.630 315.778,72.000 313.697 C 68.370 311.617,65.085 309.636,64.700 309.296 C 63.980 308.658,63.550 151.783,64.267 151.067 C 64.754 150.579,65.277 150.785,68.551 152.756 M335.701 190.999 C 335.825 212.448,335.825 247.885,335.701 269.748 L 335.476 309.498 332.038 311.507 C 330.147 312.612,325.900 315.095,322.600 317.025 C 319.300 318.955,315.430 321.193,314.000 321.998 C 312.570 322.803,306.630 326.254,300.800 329.668 C 294.970 333.082,287.860 337.229,285.000 338.885 C 282.140 340.541,275.570 344.375,270.400 347.404 C 265.230 350.434,259.650 353.675,258.000 354.606 C 256.350 355.537,252.687 357.671,249.859 359.349 C 247.032 361.027,244.467 362.400,244.159 362.400 C 243.371 362.400,243.312 205.325,244.100 204.306 C 244.375 203.950,246.850 202.357,249.600 200.765 C 257.758 196.044,281.438 182.487,286.400 179.698 C 292.516 176.260,299.300 172.412,304.200 169.602 C 306.400 168.340,309.280 166.714,310.600 165.988 C 311.920 165.262,314.980 163.548,317.400 162.181 C 319.820 160.813,324.590 158.123,328.000 156.203 C 331.410 154.283,334.371 152.552,334.580 152.356 C 334.789 152.160,335.076 152.000,335.218 152.000 C 335.360 152.000,335.577 169.550,335.701 190.999 M85.600 197.923 C 70.330 203.008,76.516 226.640,94.722 232.774 C 112.461 238.749,120.666 220.052,106.739 205.391 C 100.721 199.055,91.735 195.881,85.600 197.923 M242.800 285.224 C 242.800 328.991,242.935 364.795,243.100 364.789 C 243.636 364.769,253.965 358.786,274.105 346.831 C 276.913 345.164,279.703 343.526,280.305 343.191 C 285.419 340.347,289.319 338.087,291.000 336.995 C 292.100 336.280,299.750 331.775,308.000 326.984 C 316.250 322.193,326.060 316.456,329.800 314.236 L 336.600 310.200 336.800 280.600 L 337.000 251.000 356.600 251.000 L 376.200 251.000 376.288 304.200 C 376.337 333.460,376.247 375.220,376.088 397.000 L 375.800 436.600 356.400 436.600 L 337.000 436.600 336.898 398.039 C 336.825 370.354,336.670 359.325,336.349 358.939 C 336.017 358.539,336.031 358.245,336.400 357.800 C 337.293 356.724,336.383 357.154,331.053 360.326 C 328.164 362.045,324.090 364.416,322.000 365.595 C 319.910 366.774,317.480 368.219,316.600 368.805 C 315.720 369.391,307.620 374.160,298.600 379.402 C 273.322 394.093,272.639 394.493,272.000 395.008 C 271.670 395.274,269.960 396.268,268.200 397.217 C 266.440 398.167,264.190 399.437,263.200 400.041 C 259.402 402.358,231.375 418.774,224.000 423.001 C 222.130 424.072,219.430 425.702,218.000 426.621 C 216.570 427.540,214.438 428.811,213.262 429.446 C 209.329 431.569,207.423 432.662,204.049 434.730 C 202.206 435.860,200.541 436.687,200.349 436.569 C 199.673 436.150,199.911 229.600,200.588 229.600 C 200.912 229.600,201.947 229.085,202.888 228.456 C 205.786 226.519,222.264 216.800,222.650 216.800 C 222.850 216.800,223.721 216.320,224.585 215.733 C 227.947 213.448,242.189 205.270,242.486 205.453 C 242.659 205.560,242.800 241.457,242.800 285.224 M377.200 219.424 C 377.200 220.804,377.352 221.553,377.600 221.400 C 377.820 221.264,378.000 220.263,378.000 219.176 C 378.000 218.089,377.820 217.200,377.600 217.200 C 377.380 217.200,377.200 218.201,377.200 219.424 M275.043 251.409 C 259.551 255.663,250.300 274.753,259.348 283.800 C 268.007 292.460,285.744 284.911,291.472 270.127 C 296.061 258.284,287.117 248.094,275.043 251.409 M122.544 252.412 C 107.957 254.469,109.086 274.908,124.337 284.864 C 132.745 290.353,143.079 289.759,147.018 283.561 C 155.037 270.945,138.688 250.135,122.544 252.412 " stroke="none" fill="#0d0a08" fill-rule="evenodd"></path></g></svg>